<mxfile host="Electron" agent="Mozilla/5.0 (X11; Linux x86_64) AppleWebKit/537.36 (KHTML, like Gecko) draw.io/26.0.4 Chrome/128.0.6613.186 Electron/32.2.5 Safari/537.36" version="26.0.4">
  <diagram name="Page-1" id="_vp9OOvdw-6vSeqlVvCL">
    <mxGraphModel dx="1114" dy="1198" grid="1" gridSize="10" guides="1" tooltips="1" connect="1" arrows="1" fold="1" page="1" pageScale="1" pageWidth="850" pageHeight="1100" math="0" shadow="0">
      <root>
        <mxCell id="0" />
        <mxCell id="1" parent="0" />
        <mxCell id="FUsync3gs4P3RCPwMnnA-1" value="Region (sa-east-1)" style="points=[[0,0],[0.25,0],[0.5,0],[0.75,0],[1,0],[1,0.25],[1,0.5],[1,0.75],[1,1],[0.75,1],[0.5,1],[0.25,1],[0,1],[0,0.75],[0,0.5],[0,0.25]];outlineConnect=0;gradientColor=none;html=1;whiteSpace=wrap;fontSize=12;fontStyle=0;container=1;pointerEvents=0;collapsible=0;recursiveResize=0;shape=mxgraph.aws4.group;grIcon=mxgraph.aws4.group_region;strokeColor=#00A4A6;fillColor=none;verticalAlign=top;align=left;spacingLeft=30;fontColor=#147EBA;dashed=1;" vertex="1" parent="1">
          <mxGeometry x="35" y="330" width="280" height="380" as="geometry" />
        </mxCell>
        <mxCell id="FUsync3gs4P3RCPwMnnA-2" value="VPC" style="points=[[0,0],[0.25,0],[0.5,0],[0.75,0],[1,0],[1,0.25],[1,0.5],[1,0.75],[1,1],[0.75,1],[0.5,1],[0.25,1],[0,1],[0,0.75],[0,0.5],[0,0.25]];outlineConnect=0;gradientColor=none;html=1;whiteSpace=wrap;fontSize=12;fontStyle=0;container=1;pointerEvents=0;collapsible=0;recursiveResize=0;shape=mxgraph.aws4.group;grIcon=mxgraph.aws4.group_vpc2;strokeColor=#8C4FFF;fillColor=none;verticalAlign=top;align=left;spacingLeft=30;fontColor=#AAB7B8;dashed=0;" vertex="1" parent="FUsync3gs4P3RCPwMnnA-1">
          <mxGeometry x="20" y="30" width="168" height="170" as="geometry" />
        </mxCell>
        <mxCell id="FUsync3gs4P3RCPwMnnA-7" value="10.0.0.0/16" style="text;html=1;align=center;verticalAlign=middle;resizable=0;points=[];autosize=1;strokeColor=none;fillColor=none;fontSize=14;fontStyle=1" vertex="1" parent="FUsync3gs4P3RCPwMnnA-2">
          <mxGeometry x="20" y="140" width="90" height="30" as="geometry" />
        </mxCell>
        <mxCell id="FUsync3gs4P3RCPwMnnA-6" value="Virutal Private Gateway (VGW)" style="sketch=0;outlineConnect=0;fontColor=#232F3E;gradientColor=none;fillColor=#8C4FFF;strokeColor=none;dashed=0;verticalLabelPosition=bottom;verticalAlign=top;align=center;html=1;fontSize=12;fontStyle=0;aspect=fixed;pointerEvents=1;shape=mxgraph.aws4.vpn_gateway;" vertex="1" parent="FUsync3gs4P3RCPwMnnA-2">
          <mxGeometry x="130" y="40" width="78" height="78" as="geometry" />
        </mxCell>
        <mxCell id="FUsync3gs4P3RCPwMnnA-16" value="Private Virtual Interface" style="text;html=1;align=center;verticalAlign=middle;resizable=0;points=[];autosize=1;strokeColor=none;fillColor=none;" vertex="1" parent="FUsync3gs4P3RCPwMnnA-1">
          <mxGeometry x="130" y="230" width="150" height="30" as="geometry" />
        </mxCell>
        <mxCell id="FUsync3gs4P3RCPwMnnA-4" value="Direct Connect Gateway" style="sketch=0;outlineConnect=0;fontColor=#232F3E;gradientColor=none;fillColor=#8C4FFF;strokeColor=none;dashed=0;verticalLabelPosition=bottom;verticalAlign=top;align=center;html=1;fontSize=16;fontStyle=1;aspect=fixed;pointerEvents=1;shape=mxgraph.aws4.gateway;" vertex="1" parent="1">
          <mxGeometry x="305" y="600.5" width="76" height="78" as="geometry" />
        </mxCell>
        <mxCell id="FUsync3gs4P3RCPwMnnA-5" value="Corporate data center" style="points=[[0,0],[0.25,0],[0.5,0],[0.75,0],[1,0],[1,0.25],[1,0.5],[1,0.75],[1,1],[0.75,1],[0.5,1],[0.25,1],[0,1],[0,0.75],[0,0.5],[0,0.25]];outlineConnect=0;gradientColor=none;html=1;whiteSpace=wrap;fontSize=12;fontStyle=0;container=1;pointerEvents=0;collapsible=0;recursiveResize=0;shape=mxgraph.aws4.group;grIcon=mxgraph.aws4.group_corporate_data_center;strokeColor=#7D8998;fillColor=none;verticalAlign=top;align=left;spacingLeft=30;fontColor=#5A6C86;dashed=0;" vertex="1" parent="1">
          <mxGeometry x="685" y="570" width="130" height="139" as="geometry" />
        </mxCell>
        <mxCell id="FUsync3gs4P3RCPwMnnA-8" value="Region (us-west-1)" style="points=[[0,0],[0.25,0],[0.5,0],[0.75,0],[1,0],[1,0.25],[1,0.5],[1,0.75],[1,1],[0.75,1],[0.5,1],[0.25,1],[0,1],[0,0.75],[0,0.5],[0,0.25]];outlineConnect=0;gradientColor=none;html=1;whiteSpace=wrap;fontSize=12;fontStyle=0;container=1;pointerEvents=0;collapsible=0;recursiveResize=0;shape=mxgraph.aws4.group;grIcon=mxgraph.aws4.group_region;strokeColor=#00A4A6;fillColor=none;verticalAlign=top;align=left;spacingLeft=30;fontColor=#147EBA;dashed=1;" vertex="1" parent="1">
          <mxGeometry x="375" y="330" width="280" height="380" as="geometry" />
        </mxCell>
        <mxCell id="FUsync3gs4P3RCPwMnnA-9" value="VPC" style="points=[[0,0],[0.25,0],[0.5,0],[0.75,0],[1,0],[1,0.25],[1,0.5],[1,0.75],[1,1],[0.75,1],[0.5,1],[0.25,1],[0,1],[0,0.75],[0,0.5],[0,0.25]];outlineConnect=0;gradientColor=none;html=1;whiteSpace=wrap;fontSize=12;fontStyle=0;container=1;pointerEvents=0;collapsible=0;recursiveResize=0;shape=mxgraph.aws4.group;grIcon=mxgraph.aws4.group_vpc2;strokeColor=#8C4FFF;fillColor=none;verticalAlign=top;align=left;spacingLeft=30;fontColor=#AAB7B8;dashed=0;" vertex="1" parent="FUsync3gs4P3RCPwMnnA-8">
          <mxGeometry x="90" y="30" width="168" height="170" as="geometry" />
        </mxCell>
        <mxCell id="FUsync3gs4P3RCPwMnnA-10" value="172.16.0.0/16" style="text;html=1;align=center;verticalAlign=middle;resizable=0;points=[];autosize=1;strokeColor=none;fillColor=none;fontSize=14;fontStyle=1" vertex="1" parent="FUsync3gs4P3RCPwMnnA-9">
          <mxGeometry x="29" y="140" width="110" height="30" as="geometry" />
        </mxCell>
        <mxCell id="FUsync3gs4P3RCPwMnnA-11" value="Virutal Private Gateway (VGW)" style="sketch=0;outlineConnect=0;fontColor=#232F3E;gradientColor=none;fillColor=#8C4FFF;strokeColor=none;dashed=0;verticalLabelPosition=bottom;verticalAlign=top;align=center;html=1;fontSize=12;fontStyle=0;aspect=fixed;pointerEvents=1;shape=mxgraph.aws4.vpn_gateway;" vertex="1" parent="FUsync3gs4P3RCPwMnnA-9">
          <mxGeometry x="-40" y="40" width="78" height="78" as="geometry" />
        </mxCell>
        <mxCell id="FUsync3gs4P3RCPwMnnA-3" value="AWS Direct Connect" style="sketch=0;points=[[0,0,0],[0.25,0,0],[0.5,0,0],[0.75,0,0],[1,0,0],[0,1,0],[0.25,1,0],[0.5,1,0],[0.75,1,0],[1,1,0],[0,0.25,0],[0,0.5,0],[0,0.75,0],[1,0.25,0],[1,0.5,0],[1,0.75,0]];outlineConnect=0;fontColor=#232F3E;fillColor=#8C4FFF;strokeColor=#ffffff;dashed=0;verticalLabelPosition=bottom;verticalAlign=top;align=center;html=1;fontSize=12;fontStyle=0;aspect=fixed;shape=mxgraph.aws4.resourceIcon;resIcon=mxgraph.aws4.direct_connect;" vertex="1" parent="FUsync3gs4P3RCPwMnnA-8">
          <mxGeometry x="170" y="270.5" width="78" height="78" as="geometry" />
        </mxCell>
        <mxCell id="FUsync3gs4P3RCPwMnnA-17" value="Private Virtual Interface" style="text;html=1;align=center;verticalAlign=middle;resizable=0;points=[];autosize=1;strokeColor=none;fillColor=none;" vertex="1" parent="FUsync3gs4P3RCPwMnnA-8">
          <mxGeometry x="-10" y="230" width="150" height="30" as="geometry" />
        </mxCell>
        <mxCell id="FUsync3gs4P3RCPwMnnA-18" value="Private Virtual Interface" style="text;html=1;align=center;verticalAlign=middle;resizable=0;points=[];autosize=1;strokeColor=none;fillColor=none;" vertex="1" parent="FUsync3gs4P3RCPwMnnA-8">
          <mxGeometry x="10" y="310" width="150" height="30" as="geometry" />
        </mxCell>
        <mxCell id="FUsync3gs4P3RCPwMnnA-12" value="" style="edgeStyle=orthogonalEdgeStyle;rounded=0;orthogonalLoop=1;jettySize=auto;html=1;startArrow=classic;startFill=1;fillColor=#dae8fc;strokeColor=#6c8ebf;strokeWidth=2;" edge="1" parent="1" source="FUsync3gs4P3RCPwMnnA-6" target="FUsync3gs4P3RCPwMnnA-4">
          <mxGeometry x="0.4358" relative="1" as="geometry">
            <Array as="points">
              <mxPoint x="315" y="439" />
            </Array>
            <mxPoint as="offset" />
          </mxGeometry>
        </mxCell>
        <mxCell id="FUsync3gs4P3RCPwMnnA-13" style="edgeStyle=orthogonalEdgeStyle;rounded=0;orthogonalLoop=1;jettySize=auto;html=1;startArrow=classic;startFill=1;fillColor=#dae8fc;strokeColor=#6c8ebf;strokeWidth=2;" edge="1" parent="1" source="FUsync3gs4P3RCPwMnnA-11" target="FUsync3gs4P3RCPwMnnA-4">
          <mxGeometry relative="1" as="geometry">
            <mxPoint x="365" y="600.1201324441543" as="targetPoint" />
            <Array as="points">
              <mxPoint x="365" y="439" />
            </Array>
          </mxGeometry>
        </mxCell>
        <mxCell id="FUsync3gs4P3RCPwMnnA-14" style="edgeStyle=orthogonalEdgeStyle;rounded=0;orthogonalLoop=1;jettySize=auto;html=1;startArrow=classic;startFill=1;fillColor=#dae8fc;strokeColor=#6c8ebf;strokeWidth=2;" edge="1" parent="1" source="FUsync3gs4P3RCPwMnnA-3" target="FUsync3gs4P3RCPwMnnA-4">
          <mxGeometry relative="1" as="geometry">
            <mxPoint x="401" y="639" as="targetPoint" />
          </mxGeometry>
        </mxCell>
        <mxCell id="FUsync3gs4P3RCPwMnnA-15" style="edgeStyle=orthogonalEdgeStyle;rounded=0;orthogonalLoop=1;jettySize=auto;html=1;startArrow=classic;startFill=1;fillColor=#dae8fc;strokeColor=#6c8ebf;strokeWidth=2;" edge="1" parent="1" source="FUsync3gs4P3RCPwMnnA-3" target="FUsync3gs4P3RCPwMnnA-5">
          <mxGeometry relative="1" as="geometry" />
        </mxCell>
      </root>
    </mxGraphModel>
  </diagram>
</mxfile>
